<svg id="visual" viewBox="0 0 675 900" width="675" height="900" xmlns="http://www.w3.org/2000/svg" xmlns:xlink="http://www.w3.org/1999/xlink" version="1.1"><rect x="0" y="0" width="675" height="900" fill="#063356"></rect><defs><linearGradient id="grad1_0" x1="0%" y1="0%" x2="100%" y2="100%"><stop offset="30%" stop-color="#063356" stop-opacity="1"></stop><stop offset="70%" stop-color="#063356" stop-opacity="1"></stop></linearGradient></defs><defs><linearGradient id="grad2_0" x1="0%" y1="0%" x2="100%" y2="100%"><stop offset="30%" stop-color="#063356" stop-opacity="1"></stop><stop offset="70%" stop-color="#063356" stop-opacity="1"></stop></linearGradient></defs><g transform="translate(675, 0)"><path d="M0 387C-10.7 328.4 -21.5 269.9 -32.6 247.9C-43.8 225.9 -55.3 240.5 -64.4 240.5C-73.6 240.6 -80.4 226.1 -94.9 229.1C-109.4 232.1 -131.6 252.6 -147.5 255.5C-163.4 258.4 -173.1 243.7 -174.1 226.9C-175.1 210.1 -167.5 191.2 -202.2 202.2C-237 213.3 -314 254.3 -312.4 239.7C-310.7 225.1 -230.4 154.7 -234.7 135.5C-239 116.3 -328 148.1 -354.8 147C-381.6 145.8 -346.3 111.5 -329.4 88.3C-312.5 65 -314 52.8 -303.4 39.9C-292.7 27.1 -269.9 13.5 -247 0L0 0Z" fill="#589ee0"></path></g><g transform="translate(0, 900)"><path d="M0 -270C10.7 -269.3 21.4 -268.7 36.3 -275.6C51.1 -282.6 70.1 -297.1 75.1 -280.1C80 -263.1 71 -214.6 94.9 -229.1C118.8 -243.6 175.6 -321.2 181 -313.5C186.4 -305.8 140.2 -212.8 149.1 -194.4C158.1 -175.9 222 -231.9 231.9 -231.9C241.8 -231.9 197.7 -175.9 219.8 -168.6C241.8 -161.3 330.2 -202.8 341 -196.9C351.8 -191 285.1 -137.8 271.6 -112.5C258.1 -87.3 297.8 -90 302.3 -81C306.9 -72.1 276.4 -51.5 273.6 -36C270.9 -20.6 296 -10.3 321 0L0 0Z" fill="#589ee0"></path></g></svg>